<svg xmlns="http://www.w3.org/2000/svg" x="0%" y="0%" viewBox="0 0 280 280" xml:space="preserve"><path fill="#2B2B2B" stroke="#494949" stroke-width="8.4" stroke-linejoin="round" stroke-linecap="round" d="M140 20c66.27 0 120 53.73 120 120 0 66.27-53.73 120-120 120-66.27 0-120-53.73-120-120C20 73.73 73.73 20 140 20z"/><path fill="none" stroke="#E0E0E0" stroke-width="4.2" stroke-linejoin="round" stroke-linecap="round" d="m90 80 5-20 15 10"/><path fill="none" stroke="#404040" stroke-width="4.2" stroke-linejoin="round" stroke-linecap="round" d="M210 170q10 10 10 30-40 0-80-40-40 40-80 40 0-20 10-30"/><path fill="none" stroke="#404040" stroke-width="4.2" stroke-linejoin="round" stroke-linecap="round" d="M160 180q0 20-20 40-20-20-20-40"/><path fill="none" stroke="gray" stroke-width="4.2" stroke-linejoin="round" stroke-linecap="round" d="M200 140q20 0 40 20-40 20-100 0-60 20-100 0 20-20 40-20"/><path fill="none" stroke="#A0A0A0" stroke-width="4.2" stroke-linejoin="round" stroke-linecap="round" d="M140 160q80 0 80-80-60 0-80 80z"/><path fill="none" stroke="#A0A0A0" stroke-width="4.2" stroke-linejoin="round" stroke-linecap="square" d="M140 40q-60 60 0 120 60-60 0-120z"/><path fill="none" stroke="#A0A0A0" stroke-width="4.2" stroke-linejoin="round" stroke-linecap="round" d="M60 80q60 0 80 80-80 0-80-80z"/><path fill="none" stroke="#E0E0E0" stroke-width="4.2" stroke-linejoin="round" stroke-linecap="round" d="m55 140-8.33-20H60M220 120h13.33L225 140M190 80l-5-20-15 10"/></svg>